<?xml version="1.0" encoding="utf-8"?>
<!-- Generator: Adobe Illustrator 17.0.0, SVG Export Plug-In . SVG Version: 6.00 Build 0)  -->
<!DOCTYPE svg PUBLIC "-//W3C//DTD SVG 1.1//EN" "http://www.w3.org/Graphics/SVG/1.1/DTD/svg11.dtd">
<svg version="1.1" id="Layer_1" xmlns="http://www.w3.org/2000/svg" xmlns:xlink="http://www.w3.org/1999/xlink" x="0px" y="0px"
	 width="100px" height="100px" viewBox="0 0 100 100" enable-background="new 0 0 100 100" xml:space="preserve">
<g>
	<circle fill="#FFFFFF" cx="49.672" cy="50.387" r="46.387"/>
	<path fill="#999999" d="M93.509,66.998c0.074-0.195,0.154-0.386,0.226-0.582C95.657,61.309,96.715,55.78,96.715,50
		C96.715,24.2,75.8,3.285,50,3.285c-9.001,0-17.403,2.552-24.534,6.962C11.883,18.468,2.785,33.384,2.785,50.387
		c0,25.854,21.034,46.887,46.887,46.887c19.701,0,36.591-12.219,43.52-29.472C93.301,67.536,93.404,67.266,93.509,66.998z
		 M50.603,12.776c11.139,0,20.194,10.543,20.194,23.492c0,9.296-4.676,17.323-11.425,21.129c-2.655,1.498-5.628,2.362-8.769,2.362
		c-3.269,0-6.347-0.93-9.076-2.526c-6.59-3.882-11.118-11.811-11.118-20.965C30.409,23.319,39.464,12.776,50.603,12.776z
		 M49.672,96.274c-15.68,0-29.542-7.91-37.822-19.944c2.639-7.742,10.82-14.144,21.786-17.391c4.58,4.407,10.494,7.087,16.968,7.087
		c6.315,0,12.123-2.537,16.65-6.77c10.223,3.26,17.866,9.298,20.581,16.578C79.596,88.148,65.567,96.274,49.672,96.274z"/>
</g>
</svg>
